# xmcd CD database file
#
# Track frame offsets:
#	150
#	21565
#	33557
#	51162
#	66365
#	83537
#	99662
#	127312
#	150002
#	199050
#	226605
#	253220
#	274667
#	284945
#
# Disc length: 4043 seconds
#
# Revision: 0
# Processed by: cddbd v1.5.2PL0 Copyright (c) Steve Scherf et al.
# Submitted via: CDex 1.51
#
DISCID=ca0fc90e
DTITLE=Pablo Bobrowicky - where we are
DYEAR=1999
DGENRE=Jazz
TTITLE0=Angelica
TTITLE1=one for charlie
TTITLE2=evidence
TTITLE3=au privave
TTITLE4=body and soul
TTITLE5=simple blues
TTITLE6=come sunday
TTITLE7=invitation
TTITLE8=lonnie's lament
TTITLE9=one for wes
TTITLE10=rio de la olata
TTITLE11=prelude to a kiss
TTITLE12=wee
TTITLE13=i fall in love too easily
EXTD=YEAR: 1999
EXTT0=
EXTT1=
EXTT2=
EXTT3=
EXTT4=
EXTT5=
EXTT6=
EXTT7=
EXTT8=
EXTT9=
EXTT10=
EXTT11=
EXTT12=
EXTT13=
PLAYORDER=
